<svg width="631.401" height="94" viewBox="0 0 631.401 94" xmlns="http://www.w3.org/2000/svg"><g id="svgGroup" stroke-linecap="round" fill-rule="evenodd" font-size="9pt" stroke="#000" stroke-width="0.25mm" fill="black" style="stroke:#000;stroke-width:0.25mm;fill:black"><path d="M 448.001 56.9 L 435.201 56.5 Q 429.185 66.125 425.09 74.273 A 148.965 148.965 0 0 0 423.801 76.9 Q 423.043 78.473 421.981 79.13 A 3.134 3.134 0 0 1 420.301 79.6 A 2.325 2.325 0 0 1 419.721 79.534 Q 418.976 79.342 418.834 78.587 A 2.096 2.096 0 0 1 418.801 78.2 Q 418.801 77.334 419.251 76.318 A 7.529 7.529 0 0 1 419.401 76 Q 421.101 72.3 423.851 67.4 A 314.335 314.335 0 0 1 426.637 62.543 Q 428.335 59.641 430.301 56.4 A 152.648 152.648 0 0 0 426.976 56.434 Q 421.51 56.553 419.401 57.1 A 12.626 12.626 0 0 0 416.124 58.374 A 9.797 9.797 0 0 0 412.701 61.6 Q 411.901 62.7 411.401 62.8 Q 410.801 62.9 410.801 62.3 A 1.191 1.191 0 0 1 411.065 61.554 A 1.636 1.636 0 0 1 411.201 61.4 A 34.311 34.311 0 0 1 413.825 58.26 Q 415.24 56.771 416.669 55.704 A 15.764 15.764 0 0 1 418.901 54.3 Q 422.901 52.2 432.801 52.5 Q 437.547 45.38 445.049 32.984 A 1344.672 1344.672 0 0 0 449.901 24.9 A 53.93 53.93 0 0 0 451.883 20.798 Q 453.647 16.676 453.942 13.594 A 12.555 12.555 0 0 0 454.001 12.4 A 8.127 8.127 0 0 0 453.26 8.807 Q 451.596 5.39 446.196 4.748 A 22.913 22.913 0 0 0 443.501 4.6 Q 430.701 4.6 419.701 11.3 A 52.374 52.374 0 0 0 410.901 18.212 A 60.621 60.621 0 0 0 408.801 20.35 Q 403.701 25.8 400.601 31.95 Q 397.501 38.1 397.501 44 A 14.383 14.383 0 0 0 397.91 47.595 Q 399.387 53.3 406.201 53.3 A 13.979 13.979 0 0 0 410.197 52.747 A 12.029 12.029 0 0 0 413.101 51.45 Q 416.101 49.6 418.401 46.7 Q 422.901 41.1 422.901 35.6 A 9.878 9.878 0 0 0 422.656 33.346 A 7.065 7.065 0 0 0 421.301 30.5 A 0.675 0.675 0 0 1 421.101 30.019 A 0.886 0.886 0 0 1 421.101 30 A 1.211 1.211 0 0 1 421.101 29.989 Q 421.107 29.3 421.901 29.3 A 1.276 1.276 0 0 1 422.1 29.315 Q 422.203 29.331 422.282 29.366 A 0.384 0.384 0 0 1 422.501 29.6 A 9.627 9.627 0 0 1 424.461 34.807 A 12.248 12.248 0 0 1 424.501 35.8 A 16.672 16.672 0 0 1 423.131 42.268 Q 421.883 45.25 419.501 48.3 Q 416.896 51.493 414.185 53.239 A 15.373 15.373 0 0 1 413.151 53.85 A 14.613 14.613 0 0 1 407.988 55.462 A 18.411 18.411 0 0 1 405.701 55.6 Q 399.401 55.6 395.901 51.65 A 13.678 13.678 0 0 1 392.677 44.81 A 18.995 18.995 0 0 1 392.401 41.5 A 27.636 27.636 0 0 1 396.62 26.896 A 33.86 33.86 0 0 1 397.451 25.6 Q 402.501 18.1 410.201 12.7 A 54.736 54.736 0 0 1 442.438 2.478 A 62.205 62.205 0 0 1 444.101 2.5 A 22.557 22.557 0 0 1 450.467 3.55 A 20.96 20.96 0 0 1 451.601 3.95 A 14.998 14.998 0 0 1 454.938 5.723 A 12.547 12.547 0 0 1 457.251 7.85 A 9.053 9.053 0 0 1 459.298 12.598 A 12.119 12.119 0 0 1 459.401 14.2 A 14.93 14.93 0 0 1 458.742 18.446 Q 457.84 21.489 455.701 24.9 L 437.601 52.7 Q 439.39 52.79 442.139 52.999 A 346.027 346.027 0 0 1 442.801 53.05 A 162.346 162.346 0 0 1 445.369 53.273 Q 446.51 53.38 447.768 53.512 A 304.241 304.241 0 0 1 450.401 53.8 Q 454.101 54.2 456.601 54.35 Q 458.515 54.465 459.725 54.492 A 30.601 30.601 0 0 0 460.401 54.5 L 464.351 54.5 Q 465.925 54.5 466.908 54.409 A 12.846 12.846 0 0 0 467.001 54.4 L 470.801 48.1 Q 475.801 39.8 481.251 32.35 Q 486.701 24.9 492.601 18.3 A 133.207 133.207 0 0 1 499.444 11.242 Q 508.524 2.597 515.501 0.1 Q 515.801 0 516.201 0 A 0.63 0.63 0 0 1 516.477 0.057 Q 516.801 0.213 516.801 0.8 A 0.541 0.541 0 0 1 516.628 1.197 A 0.862 0.862 0 0 1 516.501 1.3 Q 513.401 3 508.951 7.25 A 114.921 114.921 0 0 0 505.409 10.796 Q 503.849 12.423 502.147 14.299 A 241.255 241.255 0 0 0 498.601 18.3 A 213.095 213.095 0 0 0 483.319 38.076 A 181.624 181.624 0 0 0 477.501 47.2 L 473.601 53.8 A 24.018 24.018 0 0 0 475.982 53.376 Q 478.763 52.722 480.201 51.5 Q 480.573 51.221 480.859 51.722 A 1.626 1.626 0 0 1 480.901 51.8 Q 481.104 52.274 480.986 52.565 A 0.55 0.55 0 0 1 480.801 52.8 A 13.826 13.826 0 0 1 477.982 54.441 Q 476.56 55.071 474.824 55.538 A 31.27 31.27 0 0 1 472.301 56.1 A 137.294 137.294 0 0 0 469.573 61.419 Q 465.813 69.198 465.362 73.339 A 9.826 9.826 0 0 0 465.301 74.4 A 5.803 5.803 0 0 0 465.428 75.678 Q 465.832 77.459 467.51 77.745 A 4.105 4.105 0 0 0 468.201 77.8 Q 469.674 77.8 471.501 77.067 A 16.603 16.603 0 0 0 472.851 76.45 A 18.917 18.917 0 0 0 474.968 75.202 Q 476.027 74.475 476.841 73.667 A 11.115 11.115 0 0 0 477.101 73.4 A 1.758 1.758 0 0 1 477.182 73.323 Q 477.305 73.215 477.381 73.202 A 0.117 0.117 0 0 1 477.401 73.2 Q 477.667 73.2 477.697 73.673 A 2.02 2.02 0 0 1 477.701 73.8 A 2.417 2.417 0 0 1 477.58 74.292 Q 477.46 74.619 477.246 74.853 A 1.51 1.51 0 0 1 477.201 74.9 Q 476.268 75.833 474.852 76.766 A 23.932 23.932 0 0 1 474.001 77.3 Q 472.001 78.5 469.851 79.3 A 15.6 15.6 0 0 1 468.376 79.772 Q 467.126 80.1 466.101 80.1 Q 463.307 80.1 461.808 77.911 A 6.008 6.008 0 0 1 461.801 77.9 A 8.62 8.62 0 0 1 460.372 73.974 A 11.04 11.04 0 0 1 460.301 72.7 Q 460.301 66.9 465.601 56.9 Q 461.901 57.2 458.201 57.2 Q 455.501 57.2 448.001 56.9 Z M 47.301 45.9 L 50.601 40.5 A 31.748 31.748 0 0 0 52.394 37.137 Q 53.172 35.418 53.573 33.854 A 12.701 12.701 0 0 0 54.001 30.7 Q 54.001 27.7 52.401 25 Q 50.801 22.3 46.701 22.3 Q 41.701 22.3 36.451 25.1 A 45.003 45.003 0 0 0 29.397 29.801 A 54.461 54.461 0 0 0 26.301 32.5 Q 21.401 37.1 17.401 42.65 A 67.982 67.982 0 0 0 13.407 48.846 A 54.554 54.554 0 0 0 11.001 53.6 A 89.078 89.078 0 0 0 8.535 59.721 Q 5.901 67.097 5.901 72.2 Q 5.901 80.696 12.773 82.446 A 16.357 16.357 0 0 0 16.801 82.9 A 22.852 22.852 0 0 0 23.628 81.719 Q 30.063 79.687 38.43 74.157 A 131.776 131.776 0 0 0 45.001 69.5 A 122.646 122.646 0 0 0 47.793 67.319 Q 50.896 64.827 54.967 61.306 A 408.928 408.928 0 0 0 55.551 60.8 A 532.37 532.37 0 0 0 60.705 56.263 Q 62.984 54.231 65.483 51.966 A 1003.243 1003.243 0 0 0 70.701 47.2 L 67.701 47.45 Q 66.322 47.565 64.593 47.826 A 72.914 72.914 0 0 0 63.501 48 Q 62.501 48.2 61.601 48.35 Q 60.701 48.5 59.901 48.5 A 7.547 7.547 0 0 1 59.354 48.427 Q 58.01 48.192 58.181 47.561 A 0.686 0.686 0 0 1 58.201 47.5 Q 58.601 43.8 62.001 43.8 Q 65.101 44.2 67.851 44.4 A 75.376 75.376 0 0 0 71.755 44.586 A 65.034 65.034 0 0 0 73.101 44.6 Q 76.087 41.844 80.567 37.417 A 674.146 674.146 0 0 0 83.451 34.55 Q 87.885 30.116 93.477 24.287 A 1166.64 1166.64 0 0 0 98.801 18.7 Q 109.305 7.648 112.3 6.691 A 1.673 1.673 0 0 1 112.801 6.6 Q 113.901 6.6 113.901 8.6 A 8.294 8.294 0 0 1 113.875 9.227 Q 113.852 9.529 113.808 9.872 A 18.911 18.911 0 0 1 113.701 10.6 Q 113.547 11.519 113.277 12.672 A 51.006 51.006 0 0 1 113.101 13.4 A 27.932 27.932 0 0 1 112.658 14.919 Q 111.956 17.079 111.207 17.823 A 1.783 1.783 0 0 1 111.001 18 Q 107.901 20.2 105.851 23.65 A 108.721 108.721 0 0 0 103.529 27.769 A 137.491 137.491 0 0 0 101.701 31.3 A 384.065 384.065 0 0 1 99.809 35.123 Q 98.909 36.915 98.085 38.501 A 226.256 226.256 0 0 1 97.851 38.95 Q 96.347 41.829 95.101 44.154 A 389.88 389.88 0 0 1 94.701 44.9 L 104.401 44.7 A 40.553 40.553 0 0 1 105.438 44.712 Q 107.45 44.764 107.882 45.035 A 0.205 0.205 0 0 1 108.001 45.2 Q 108.001 45.3 107.801 45.5 A 3.988 3.988 0 0 1 106.776 45.906 Q 104.268 46.614 96.87 47.233 A 272.895 272.895 0 0 1 93.401 47.5 A 212.197 212.197 0 0 0 89.777 54.873 Q 84.977 65.183 84.236 70.518 A 13.038 13.038 0 0 0 84.101 72.3 A 10.918 10.918 0 0 0 84.203 73.863 Q 84.473 75.72 85.459 76.442 A 2.54 2.54 0 0 0 87.001 76.9 A 2.33 2.33 0 0 0 87.747 76.763 Q 88.432 76.531 89.288 75.901 A 11.988 11.988 0 0 0 89.801 75.5 A 26.23 26.23 0 0 1 90.358 75.058 Q 91.476 74.2 91.801 74.2 Q 91.301 76 88.851 77.45 A 10.141 10.141 0 0 1 84.953 78.821 A 9.8 9.8 0 0 1 83.701 78.9 A 6.009 6.009 0 0 1 82.525 78.794 Q 81.879 78.665 81.4 78.379 A 2.569 2.569 0 0 1 80.401 77.3 A 6.492 6.492 0 0 1 79.915 75.939 Q 79.601 74.656 79.601 72.9 A 35.184 35.184 0 0 1 80.47 65.494 Q 81.946 58.675 85.93 50.066 A 126.53 126.53 0 0 1 87.301 47.2 L 75.301 47.5 A 265.291 265.291 0 0 1 57.249 63.659 A 224.094 224.094 0 0 1 48.401 70.5 A 147.072 147.072 0 0 1 39.132 76.741 Q 24.283 85.873 15.401 85.1 A 24.172 24.172 0 0 1 9.12 83.8 Q 2.013 81.196 0.445 73.845 A 21.788 21.788 0 0 1 0.001 69.3 Q 0.001 61.277 4.701 52.382 A 55.736 55.736 0 0 1 5.401 51.1 Q 8.601 45.3 13.451 39.8 Q 18.301 34.3 24.051 29.85 A 57.04 57.04 0 0 1 32.099 24.606 A 49.416 49.416 0 0 1 35.851 22.8 Q 41.901 20.2 47.501 20.2 Q 57.047 20.2 57.388 26.989 A 10.21 10.21 0 0 1 57.401 27.5 A 18.986 18.986 0 0 1 56.826 31.998 Q 56.319 34.079 55.363 36.325 A 37.479 37.479 0 0 1 54.401 38.4 A 34.963 34.963 0 0 1 52.894 41.125 Q 51.193 43.881 49.461 45.245 A 7.282 7.282 0 0 1 48.301 46 Q 48.001 46.1 47.601 46.1 A 0.666 0.666 0 0 1 47.495 46.093 Q 47.31 46.063 47.301 45.915 A 0.253 0.253 0 0 1 47.301 45.9 Z M 150.301 83.7 Q 149.101 83.7 149.101 82.6 A 0.739 0.739 0 0 1 149.146 82.337 A 0.664 0.664 0 0 1 149.301 82.1 A 168.586 168.586 0 0 1 161.512 65.131 A 141.814 141.814 0 0 1 169.401 56.3 Q 169.49 54.153 169.58 50.846 A 741.867 741.867 0 0 0 169.601 50.05 A 583.681 583.681 0 0 1 169.69 46.959 Q 169.776 44.213 169.901 40.9 A 1.789 1.789 0 0 0 169.314 41.149 Q 168.424 41.691 166.965 43.351 A 38.308 38.308 0 0 0 166.201 44.25 A 79.186 79.186 0 0 0 164.216 46.766 Q 163.279 48 162.25 49.433 A 178.704 178.704 0 0 0 160.101 52.5 A 106.887 106.887 0 0 1 157.614 56.011 Q 156.352 57.715 155.158 59.16 A 55.526 55.526 0 0 1 153.751 60.8 Q 150.925 63.961 150.439 64.37 A 0.899 0.899 0 0 1 150.401 64.4 Q 149.962 64.776 149.563 64.916 A 1.39 1.39 0 0 1 149.101 65 A 0.72 0.72 0 0 1 148.903 64.975 Q 148.601 64.889 148.601 64.5 Q 148.601 64.181 148.823 63.83 A 2.312 2.312 0 0 1 148.951 63.65 Q 149.301 63.2 150.601 61.8 A 177.603 177.603 0 0 0 151.88 60.363 Q 152.384 59.791 152.839 59.263 A 101.251 101.251 0 0 0 153.701 58.25 A 45.323 45.323 0 0 0 155.78 55.566 A 51.121 51.121 0 0 0 156.251 54.9 A 138.68 138.68 0 0 0 157.251 53.438 Q 157.695 52.781 158.182 52.047 A 273.756 273.756 0 0 0 159.201 50.5 Q 160.301 48.9 161.951 46.45 Q 163.601 44 165.351 41.7 A 36.877 36.877 0 0 1 166.4 40.38 Q 167.39 39.196 168.21 38.466 A 9.954 9.954 0 0 1 168.401 38.3 A 6.691 6.691 0 0 1 169.709 37.37 A 5.809 5.809 0 0 1 170.551 37 Q 171.701 36.6 172.701 36.6 Q 173.901 36.6 174.951 37.1 Q 176.001 37.6 175.701 39.3 A 0.927 0.927 0 0 1 175.694 39.371 Q 175.644 39.781 175.251 42.45 Q 174.801 45.5 174.401 51.4 A 84.211 84.211 0 0 1 175.497 50.383 Q 177.625 48.44 181.951 44.65 Q 187.005 40.222 194.659 33.674 A 2714.872 2714.872 0 0 1 196.501 32.1 A 0.675 0.675 0 0 1 196.981 31.9 A 0.886 0.886 0 0 1 197.001 31.9 A 1.374 1.374 0 0 1 197.574 32.035 Q 198.019 32.239 198.501 32.75 Q 199.301 33.6 199.301 34.5 Q 199.301 35.3 198.501 36.1 A 104.959 104.959 0 0 1 196.729 37.492 Q 193.315 40.124 186.501 45.1 Q 182.501 47.9 179.351 50.5 A 153.161 153.161 0 0 0 177.847 51.756 Q 175.735 53.546 174.248 54.955 A 53.689 53.689 0 0 0 174.201 55 Q 174.101 56 174.101 57 L 174.101 58.9 A 49.252 49.252 0 0 0 174.199 62.139 Q 174.452 65.958 175.351 68.15 A 6.412 6.412 0 0 0 176.15 69.59 Q 177.357 71.188 179.369 71.2 A 5.11 5.11 0 0 0 179.401 71.2 A 6.525 6.525 0 0 0 181.499 70.814 Q 183.985 69.966 187.251 67.25 Q 191.926 63.362 196.844 57.681 A 114.665 114.665 0 0 0 197.001 57.5 Q 198.001 56.5 198.501 56.5 A 0.589 0.589 0 0 1 198.716 56.537 Q 198.973 56.637 198.998 57.017 A 1.292 1.292 0 0 1 199.001 57.1 A 0.795 0.795 0 0 1 198.989 57.227 Q 198.967 57.36 198.904 57.549 A 4.376 4.376 0 0 1 198.851 57.7 A 1.971 1.971 0 0 1 198.724 57.968 Q 198.571 58.241 198.295 58.585 A 8.062 8.062 0 0 1 198.201 58.7 A 150.782 150.782 0 0 1 193.091 64.306 A 171.828 171.828 0 0 1 191.251 66.2 A 54.56 54.56 0 0 1 187.016 70.08 A 43.277 43.277 0 0 1 183.701 72.55 A 17.59 17.59 0 0 1 180.907 74.098 Q 178.595 75.1 176.401 75.1 A 7.961 7.961 0 0 1 176.354 75.1 Q 173.389 75.083 171.901 72.85 Q 170.545 70.817 170.047 67.762 A 19.825 19.825 0 0 1 169.951 67.1 A 70.89 70.89 0 0 1 169.44 60.98 A 79.347 79.347 0 0 1 169.401 59.8 Q 157.201 72.8 151.101 83.3 A 1.004 1.004 0 0 1 150.782 83.584 Q 150.583 83.693 150.334 83.7 A 1.225 1.225 0 0 1 150.301 83.7 Z M 260.601 55.9 L 267.001 45.5 A 79.342 79.342 0 0 0 259.382 51.916 A 103.379 103.379 0 0 0 253.501 58 A 131.281 131.281 0 0 0 251.839 59.884 Q 250.997 60.857 250.075 61.955 A 229.439 229.439 0 0 0 249.451 62.7 A 176.764 176.764 0 0 0 247.242 65.407 Q 245.935 67.041 244.501 68.9 Q 240.901 73.6 240.201 73.6 Q 238.801 73.6 237.901 72.35 A 6.525 6.525 0 0 1 237.436 71.612 Q 237.225 71.216 237.116 70.849 A 2.637 2.637 0 0 1 237.001 70.1 Q 237.001 69.36 237.429 67.462 A 49.984 49.984 0 0 1 237.501 67.15 A 26.311 26.311 0 0 1 237.976 65.374 Q 238.255 64.468 238.579 63.686 A 15.603 15.603 0 0 1 238.701 63.4 Q 239.401 61.7 240.151 60.05 Q 240.901 58.4 241.601 56.8 L 235.601 63.1 L 234.401 64.3 A 7.429 7.429 0 0 1 233.982 64.69 Q 233.291 65.281 232.83 65.3 A 0.738 0.738 0 0 1 232.801 65.3 Q 232.301 65.3 232.301 64.6 A 0.749 0.749 0 0 1 232.315 64.464 Q 232.339 64.332 232.408 64.155 A 3.256 3.256 0 0 1 232.451 64.05 A 1.536 1.536 0 0 1 232.577 63.82 Q 232.726 63.59 232.993 63.311 A 6.493 6.493 0 0 1 233.101 63.2 Q 234.601 61.7 236.201 60 Q 237.801 58.3 239.501 56.1 A 182.751 182.751 0 0 0 240.007 55.478 Q 240.848 54.441 242.193 52.76 A 1292.286 1292.286 0 0 0 242.201 52.75 Q 244.001 50.5 246.151 47.9 Q 248.301 45.3 250.201 43.1 Q 250.612 42.524 251.091 42.253 A 1.936 1.936 0 0 1 251.301 42.15 A 8.589 8.589 0 0 1 251.544 42.053 Q 251.944 41.9 252.101 41.9 A 5.092 5.092 0 0 1 253.086 41.987 Q 254.801 42.327 254.801 44 A 2.554 2.554 0 0 1 254.625 44.919 A 3.136 3.136 0 0 1 254.501 45.2 Q 245.501 57.6 243.701 64.1 Q 253.262 54.539 259.732 48.884 A 134.781 134.781 0 0 1 262.351 46.65 A 68.093 68.093 0 0 1 265.193 44.407 Q 270.045 40.8 272.401 40.8 A 8.226 8.226 0 0 1 273.306 40.847 Q 274.244 40.951 274.831 41.289 A 2.412 2.412 0 0 1 274.851 41.3 A 1.589 1.589 0 0 1 275.549 42.177 Q 275.701 42.608 275.701 43.2 Q 275.701 43.526 275.658 43.766 A 1.641 1.641 0 0 1 275.601 44 Q 275.345 44.596 272.559 48.229 A 326.237 326.237 0 0 1 271.501 49.6 A 209.626 209.626 0 0 0 269.402 52.195 Q 268.418 53.432 267.564 54.551 A 125.271 125.271 0 0 0 267.451 54.7 Q 265.701 57 264.601 58.7 Q 262.959 61.254 262.066 63.517 A 19.434 19.434 0 0 0 261.901 63.95 A 19.015 19.015 0 0 0 261.398 65.512 Q 261.199 66.241 261.1 66.889 A 8.02 8.02 0 0 0 261.001 68.1 Q 261.001 68.8 261.201 69.8 Q 261.376 70.678 262.169 70.785 A 1.733 1.733 0 0 0 262.401 70.8 A 4.211 4.211 0 0 0 263.759 70.534 Q 265.751 69.843 268.911 67.354 A 50.87 50.87 0 0 0 269.601 66.8 Q 271.901 64.8 273.901 62.75 A 139.743 139.743 0 0 0 277.247 59.201 A 127.174 127.174 0 0 0 277.701 58.7 A 6.106 6.106 0 0 0 277.928 58.458 Q 278.304 58.037 278.939 57.228 A 60.175 60.175 0 0 0 279.001 57.15 A 21.143 21.143 0 0 1 279.289 56.789 Q 279.821 56.139 280.027 56.025 A 0.161 0.161 0 0 1 280.101 56 Q 280.501 56 280.501 56.8 Q 280.501 57.171 280.114 58.015 A 12.007 12.007 0 0 1 280.051 58.15 Q 279.732 58.823 279.389 59.27 A 3.378 3.378 0 0 1 279.101 59.6 Q 278.258 60.595 276.801 62.177 A 199.327 199.327 0 0 1 275.851 63.2 A 75.413 75.413 0 0 1 272.968 66.114 A 91.196 91.196 0 0 1 271.051 67.9 Q 268.401 70.3 265.901 72 A 13.765 13.765 0 0 1 264.469 72.86 Q 262.837 73.7 261.501 73.7 Q 258.801 73.7 257.701 72.15 Q 256.601 70.6 256.601 68.3 A 19.447 19.447 0 0 1 257.57 62.397 Q 258.319 60.038 259.649 57.563 A 37.027 37.027 0 0 1 260.601 55.9 Z M 535.901 55.9 L 542.301 45.5 A 79.342 79.342 0 0 0 534.682 51.916 A 103.379 103.379 0 0 0 528.801 58 A 131.281 131.281 0 0 0 527.139 59.884 Q 526.297 60.857 525.375 61.955 A 229.439 229.439 0 0 0 524.751 62.7 A 176.764 176.764 0 0 0 522.542 65.407 Q 521.235 67.041 519.801 68.9 Q 516.201 73.6 515.501 73.6 Q 514.101 73.6 513.201 72.35 A 6.525 6.525 0 0 1 512.736 71.612 Q 512.525 71.216 512.416 70.849 A 2.637 2.637 0 0 1 512.301 70.1 Q 512.301 69.36 512.729 67.462 A 49.984 49.984 0 0 1 512.801 67.15 A 26.311 26.311 0 0 1 513.276 65.374 Q 513.555 64.468 513.879 63.686 A 15.603 15.603 0 0 1 514.001 63.4 Q 514.701 61.7 515.451 60.05 Q 516.201 58.4 516.901 56.8 L 510.901 63.1 L 509.701 64.3 A 7.429 7.429 0 0 1 509.282 64.69 Q 508.591 65.281 508.13 65.3 A 0.738 0.738 0 0 1 508.101 65.3 Q 507.601 65.3 507.601 64.6 A 0.749 0.749 0 0 1 507.615 64.464 Q 507.639 64.332 507.708 64.155 A 3.256 3.256 0 0 1 507.751 64.05 A 1.536 1.536 0 0 1 507.877 63.82 Q 508.026 63.59 508.293 63.311 A 6.493 6.493 0 0 1 508.401 63.2 Q 509.901 61.7 511.501 60 Q 513.101 58.3 514.801 56.1 A 182.751 182.751 0 0 0 515.307 55.478 Q 516.148 54.441 517.493 52.76 A 1292.286 1292.286 0 0 0 517.501 52.75 Q 519.301 50.5 521.451 47.9 Q 523.601 45.3 525.501 43.1 Q 525.912 42.524 526.391 42.253 A 1.936 1.936 0 0 1 526.601 42.15 A 8.589 8.589 0 0 1 526.844 42.053 Q 527.244 41.9 527.401 41.9 A 5.092 5.092 0 0 1 528.386 41.987 Q 530.101 42.327 530.101 44 A 2.554 2.554 0 0 1 529.925 44.919 A 3.136 3.136 0 0 1 529.801 45.2 Q 520.801 57.6 519.001 64.1 Q 528.562 54.539 535.032 48.884 A 134.781 134.781 0 0 1 537.651 46.65 A 68.093 68.093 0 0 1 540.493 44.407 Q 545.345 40.8 547.701 40.8 A 8.226 8.226 0 0 1 548.606 40.847 Q 549.544 40.951 550.131 41.289 A 2.412 2.412 0 0 1 550.151 41.3 A 1.589 1.589 0 0 1 550.849 42.177 Q 551.001 42.608 551.001 43.2 Q 551.001 43.526 550.958 43.766 A 1.641 1.641 0 0 1 550.901 44 Q 550.645 44.596 547.859 48.229 A 326.237 326.237 0 0 1 546.801 49.6 A 209.626 209.626 0 0 0 544.702 52.195 Q 543.718 53.432 542.864 54.551 A 125.271 125.271 0 0 0 542.751 54.7 Q 541.001 57 539.901 58.7 Q 538.259 61.254 537.366 63.517 A 19.434 19.434 0 0 0 537.201 63.95 A 19.015 19.015 0 0 0 536.698 65.512 Q 536.499 66.241 536.4 66.889 A 8.02 8.02 0 0 0 536.301 68.1 Q 536.301 68.8 536.501 69.8 Q 536.676 70.678 537.469 70.785 A 1.733 1.733 0 0 0 537.701 70.8 A 4.211 4.211 0 0 0 539.059 70.534 Q 541.051 69.843 544.211 67.354 A 50.87 50.87 0 0 0 544.901 66.8 Q 547.201 64.8 549.201 62.75 A 139.743 139.743 0 0 0 552.547 59.201 A 127.174 127.174 0 0 0 553.001 58.7 A 6.106 6.106 0 0 0 553.228 58.458 Q 553.604 58.037 554.239 57.228 A 60.175 60.175 0 0 0 554.301 57.15 A 21.143 21.143 0 0 1 554.589 56.789 Q 555.121 56.139 555.327 56.025 A 0.161 0.161 0 0 1 555.401 56 Q 555.801 56 555.801 56.8 Q 555.801 57.171 555.414 58.015 A 12.007 12.007 0 0 1 555.351 58.15 Q 555.032 58.823 554.689 59.27 A 3.378 3.378 0 0 1 554.401 59.6 Q 553.558 60.595 552.101 62.177 A 199.327 199.327 0 0 1 551.151 63.2 A 75.413 75.413 0 0 1 548.268 66.114 A 91.196 91.196 0 0 1 546.351 67.9 Q 543.701 70.3 541.201 72 A 13.765 13.765 0 0 1 539.769 72.86 Q 538.137 73.7 536.801 73.7 Q 534.101 73.7 533.001 72.15 Q 531.901 70.6 531.901 68.3 A 19.447 19.447 0 0 1 532.87 62.397 Q 533.619 60.038 534.949 57.563 A 37.027 37.027 0 0 1 535.901 55.9 Z M 615.401 65.1 L 619.201 55.9 L 604.501 67.4 A 46.307 46.307 0 0 1 601.281 69.711 Q 598.052 71.809 595.573 72.434 A 8.084 8.084 0 0 1 593.601 72.7 A 4.877 4.877 0 0 1 591.962 72.436 A 4.159 4.159 0 0 1 590.101 71.1 A 6.501 6.501 0 0 1 589.283 69.835 A 4.63 4.63 0 0 1 588.801 67.8 A 8.197 8.197 0 0 1 589.263 65.306 Q 590.651 61.05 596.201 53.7 Q 602.252 45.605 605.829 44.129 A 3.887 3.887 0 0 1 607.301 43.8 A 6.139 6.139 0 0 1 608.422 43.893 Q 610.401 44.263 610.401 46.1 Q 610.401 46.952 602.423 55.513 A 510.061 510.061 0 0 1 601.501 56.5 A 115.783 115.783 0 0 0 598.51 59.811 Q 592.701 66.519 592.701 69.2 A 1.395 1.395 0 0 0 592.817 69.792 Q 593.091 70.383 594.01 70.481 A 3.692 3.692 0 0 0 594.401 70.5 Q 596.985 70.5 604.461 65.087 A 146.25 146.25 0 0 0 608.301 62.2 A 356.179 356.179 0 0 0 612.206 59.051 Q 614.294 57.341 616.101 55.8 A 132.39 132.39 0 0 0 618.496 53.71 Q 619.663 52.665 620.662 51.711 A 67.956 67.956 0 0 0 621.801 50.6 Q 622.601 49.6 623.401 48.65 Q 624.201 47.7 624.901 46.7 A 9.245 9.245 0 0 1 625.955 45.649 Q 627.328 44.5 628.701 44.5 A 4.867 4.867 0 0 1 629.686 44.591 Q 631.18 44.901 631.372 46.271 A 3.083 3.083 0 0 1 631.401 46.7 Q 631.401 47.049 628.204 51.813 A 413.558 413.558 0 0 1 627.201 53.3 A 319.758 319.758 0 0 1 626.157 54.903 Q 624.676 57.163 623.701 58.55 A 65.889 65.889 0 0 0 623.252 59.196 Q 622.367 60.489 622.202 60.897 A 1.215 1.215 0 0 0 622.201 60.9 Q 619.101 66.9 612.701 78.4 Q 605.225 90.424 597.748 93.18 A 12.78 12.78 0 0 1 593.301 94 A 6.995 6.995 0 0 1 588.549 92.149 A 9.853 9.853 0 0 1 587.701 91.3 A 9.852 9.852 0 0 1 586.014 88.578 Q 585.347 86.926 585.401 85.1 Q 586.226 86.131 587.429 87.399 A 64.479 64.479 0 0 0 588.601 88.6 Q 590.318 90.251 591.992 90.812 A 5.355 5.355 0 0 0 593.701 91.1 Q 598.585 91.1 604.13 84.418 A 46.975 46.975 0 0 0 606.001 82 A 75.214 75.214 0 0 0 608.32 78.567 Q 609.479 76.75 610.673 74.684 A 121.427 121.427 0 0 0 610.751 74.55 Q 613.201 70.3 615.401 65.1 Z M 299.901 60.8 L 291.801 68.9 A 32.446 32.446 0 0 1 289.998 70.579 Q 289.084 71.363 288.229 71.954 A 14.178 14.178 0 0 1 286.851 72.8 A 13.947 13.947 0 0 1 285.508 73.433 Q 284.101 74 283.001 74 Q 280.001 74 277.901 72.35 A 6.855 6.855 0 0 1 276.428 70.794 A 5.663 5.663 0 0 1 275.501 68.3 Q 275.101 65.1 276.451 61.85 A 26.198 26.198 0 0 1 279.305 56.734 A 29.935 29.935 0 0 1 280.151 55.6 Q 282.501 52.6 285.201 50 A 59.427 59.427 0 0 1 290.369 45.363 Q 296.445 40.568 301.757 39.629 A 14.589 14.589 0 0 1 304.301 39.4 A 8.74 8.74 0 0 1 305.632 39.494 Q 307.38 39.764 308.14 40.814 A 2.683 2.683 0 0 1 308.201 40.9 A 1.943 1.943 0 0 1 308.394 41.206 Q 308.718 41.822 309.101 43.2 A 188.359 188.359 0 0 1 312.984 37.131 Q 321.108 25 324.701 25 A 4.504 4.504 0 0 1 325.89 25.167 A 6.07 6.07 0 0 1 326.801 25.5 A 3.071 3.071 0 0 1 327.269 25.76 Q 327.501 25.919 327.648 26.102 A 1.088 1.088 0 0 1 327.901 26.8 A 1.351 1.351 0 0 1 327.852 27.142 Q 327.744 27.55 327.401 28.1 Q 324.401 31.8 321.401 35.45 Q 318.401 39.1 315.501 42.8 Q 312.132 47.063 309.661 50.569 A 102.285 102.285 0 0 0 307.601 53.6 A 76.037 76.037 0 0 0 305.892 56.338 Q 304.194 59.2 303.301 61.4 Q 302.99 62.178 302.709 63.227 A 26.195 26.195 0 0 0 302.551 63.85 Q 302.201 65.3 302.201 66.8 A 7.598 7.598 0 0 0 302.376 68.472 A 5.852 5.852 0 0 0 303.001 70.1 A 2.626 2.626 0 0 0 304.662 71.349 Q 305.212 71.5 305.901 71.5 Q 308.909 71.5 313.163 68.841 A 33.899 33.899 0 0 0 314.001 68.3 Q 318.801 65.1 325.201 57.8 Q 325.601 57.4 325.951 57.1 A 1.986 1.986 0 0 1 326.36 56.826 A 1.684 1.684 0 0 1 326.701 56.7 Q 327.601 56.5 327.601 57.1 A 0.541 0.541 0 0 1 327.568 57.268 Q 327.46 57.588 327.001 58.2 A 85.432 85.432 0 0 1 321.501 64.147 A 96.613 96.613 0 0 1 320.101 65.5 A 47.72 47.72 0 0 1 315.414 69.424 A 39.299 39.299 0 0 1 312.351 71.45 Q 309.221 73.312 306.436 73.699 A 10.431 10.431 0 0 1 305.001 73.8 Q 302.545 73.8 301.132 72.6 A 4.501 4.501 0 0 1 300.201 71.5 A 9.672 9.672 0 0 1 298.813 66.839 A 11.678 11.678 0 0 1 298.801 66.3 A 14.255 14.255 0 0 1 299.252 62.662 A 12.521 12.521 0 0 1 299.901 60.8 Z M 337.601 44.8 L 330.201 54.4 A 142.278 142.278 0 0 1 328.308 56.82 Q 324.831 61.16 323.484 61.933 A 1.037 1.037 0 0 1 323.001 62.1 A 0.917 0.917 0 0 1 322.818 62.084 Q 322.537 62.026 322.505 61.769 A 0.56 0.56 0 0 1 322.501 61.7 A 1.351 1.351 0 0 1 322.549 61.358 Q 322.657 60.95 323.001 60.4 A 3.656 3.656 0 0 1 323.217 60.031 Q 323.473 59.641 323.909 59.132 A 17.689 17.689 0 0 1 324.201 58.8 A 158.776 158.776 0 0 0 329.563 52.256 A 140.52 140.52 0 0 0 331.201 50.1 A 66.2 66.2 0 0 0 334.453 45.326 A 52.715 52.715 0 0 0 336.501 41.7 A 36.758 36.758 0 0 1 337.405 38.744 Q 339.457 33 342.301 33 A 3.651 3.651 0 0 1 343.183 33.097 Q 344.601 33.451 344.601 35.1 A 4.009 4.009 0 0 1 344.369 36.369 Q 343.839 37.945 342.101 40.1 Q 339.93 42.904 339.723 43.254 A 0.146 0.146 0 0 0 339.701 43.3 Q 339.701 45.4 342.801 45.4 A 5.967 5.967 0 0 0 344.452 45.151 Q 345.147 44.951 345.89 44.591 A 12.588 12.588 0 0 0 346.801 44.1 L 349.401 42.5 A 0.746 0.746 0 0 1 349.545 42.447 Q 349.726 42.4 350.001 42.4 A 2.649 2.649 0 0 1 351.812 43.112 A 3.705 3.705 0 0 1 352.101 43.4 Q 353.001 44.4 352.701 45.2 L 345.801 53.9 Q 340.785 60.327 339.7 64.788 A 9.81 9.81 0 0 0 339.401 67.1 A 6.654 6.654 0 0 0 339.611 68.854 Q 340.16 70.86 342.143 71.401 A 6.309 6.309 0 0 0 343.801 71.6 Q 346.519 71.6 349.608 70.122 A 20.876 20.876 0 0 0 350.251 69.8 A 38.893 38.893 0 0 0 355.93 66.158 A 43.86 43.86 0 0 0 356.951 65.35 Q 359.985 62.876 362.104 60.533 A 32.972 32.972 0 0 0 362.401 60.2 L 364.801 57.4 L 365.301 56.9 A 1.997 1.997 0 0 1 365.436 56.776 Q 365.575 56.661 365.688 56.621 A 0.341 0.341 0 0 1 365.801 56.6 A 1.008 1.008 0 0 1 366.078 56.635 Q 366.388 56.724 366.471 57.041 A 1.031 1.031 0 0 1 366.501 57.3 A 0.672 0.672 0 0 1 366.489 57.417 Q 366.455 57.603 366.329 57.929 A 7.262 7.262 0 0 1 366.301 58 A 3.007 3.007 0 0 1 366.099 58.406 Q 365.905 58.735 365.601 59.1 L 362.401 62.7 Q 360.11 65.29 356.777 67.929 A 59.807 59.807 0 0 1 356.751 67.95 Q 353.401 70.6 349.851 72.3 A 20.484 20.484 0 0 1 347.28 73.336 Q 345.213 74 343.401 74 Q 340.998 74 339.438 73.298 A 4.667 4.667 0 0 1 337.501 71.75 A 7.997 7.997 0 0 1 336.332 69.23 Q 335.901 67.674 335.901 65.7 Q 335.901 61.5 338.501 55.7 A 40.873 40.873 0 0 1 339.657 53.255 A 32.475 32.475 0 0 1 340.601 51.55 A 39.429 39.429 0 0 1 342.528 48.606 A 35.362 35.362 0 0 1 342.901 48.1 A 3.947 3.947 0 0 1 342.615 48.161 Q 342.388 48.2 342.201 48.2 L 341.601 48.2 Q 339.201 48.2 337.601 44.8 Z M 566.201 44.8 L 558.801 54.4 A 142.278 142.278 0 0 1 556.908 56.82 Q 553.431 61.16 552.084 61.933 A 1.037 1.037 0 0 1 551.601 62.1 A 0.917 0.917 0 0 1 551.418 62.084 Q 551.137 62.026 551.105 61.769 A 0.56 0.56 0 0 1 551.101 61.7 A 1.351 1.351 0 0 1 551.149 61.358 Q 551.257 60.95 551.601 60.4 A 3.656 3.656 0 0 1 551.817 60.031 Q 552.073 59.641 552.509 59.132 A 17.689 17.689 0 0 1 552.801 58.8 A 158.776 158.776 0 0 0 558.163 52.256 A 140.52 140.52 0 0 0 559.801 50.1 A 66.2 66.2 0 0 0 563.053 45.326 A 52.715 52.715 0 0 0 565.101 41.7 A 36.758 36.758 0 0 1 566.005 38.744 Q 568.057 33 570.901 33 A 3.651 3.651 0 0 1 571.783 33.097 Q 573.201 33.451 573.201 35.1 A 4.009 4.009 0 0 1 572.969 36.369 Q 572.439 37.945 570.701 40.1 Q 568.53 42.904 568.323 43.254 A 0.146 0.146 0 0 0 568.301 43.3 Q 568.301 45.4 571.401 45.4 A 5.967 5.967 0 0 0 573.052 45.151 Q 573.747 44.951 574.49 44.591 A 12.588 12.588 0 0 0 575.401 44.1 L 578.001 42.5 A 0.746 0.746 0 0 1 578.145 42.447 Q 578.326 42.4 578.601 42.4 A 2.649 2.649 0 0 1 580.412 43.112 A 3.705 3.705 0 0 1 580.701 43.4 Q 581.601 44.4 581.301 45.2 L 574.401 53.9 Q 569.385 60.327 568.3 64.788 A 9.81 9.81 0 0 0 568.001 67.1 A 6.654 6.654 0 0 0 568.211 68.854 Q 568.76 70.86 570.743 71.401 A 6.309 6.309 0 0 0 572.401 71.6 Q 575.119 71.6 578.208 70.122 A 20.876 20.876 0 0 0 578.851 69.8 A 38.893 38.893 0 0 0 584.53 66.158 A 43.86 43.86 0 0 0 585.551 65.35 Q 588.585 62.876 590.704 60.533 A 32.972 32.972 0 0 0 591.001 60.2 L 593.401 57.4 L 593.901 56.9 A 1.997 1.997 0 0 1 594.036 56.776 Q 594.175 56.661 594.288 56.621 A 0.341 0.341 0 0 1 594.401 56.6 A 1.008 1.008 0 0 1 594.678 56.635 Q 594.988 56.724 595.071 57.041 A 1.031 1.031 0 0 1 595.101 57.3 A 0.672 0.672 0 0 1 595.089 57.417 Q 595.055 57.603 594.929 57.929 A 7.262 7.262 0 0 1 594.901 58 A 3.007 3.007 0 0 1 594.699 58.406 Q 594.505 58.735 594.201 59.1 L 591.001 62.7 Q 588.71 65.29 585.377 67.929 A 59.807 59.807 0 0 1 585.351 67.95 Q 582.001 70.6 578.451 72.3 A 20.484 20.484 0 0 1 575.88 73.336 Q 573.813 74 572.001 74 Q 569.598 74 568.038 73.298 A 4.667 4.667 0 0 1 566.101 71.75 A 7.997 7.997 0 0 1 564.932 69.23 Q 564.501 67.674 564.501 65.7 Q 564.501 61.5 567.101 55.7 A 40.873 40.873 0 0 1 568.257 53.255 A 32.475 32.475 0 0 1 569.201 51.55 A 39.429 39.429 0 0 1 571.128 48.606 A 35.362 35.362 0 0 1 571.501 48.1 A 3.947 3.947 0 0 1 571.215 48.161 Q 570.988 48.2 570.801 48.2 L 570.201 48.2 Q 567.801 48.2 566.201 44.8 Z M 216.401 62.8 L 210.201 68.8 A 35.11 35.11 0 0 1 208.504 70.394 Q 206.697 71.975 205.151 72.8 A 15.77 15.77 0 0 1 203.952 73.38 Q 202.507 74 201.501 74 A 7.329 7.329 0 0 1 198.576 73.369 A 10.353 10.353 0 0 1 196.701 72.3 A 8.147 8.147 0 0 1 195.352 71.12 Q 194.508 70.184 194.175 69.102 A 4.858 4.858 0 0 1 194.001 68.3 A 10.374 10.374 0 0 1 193.915 66.963 Q 193.915 60.759 201.043 52.789 A 63.849 63.849 0 0 1 203.701 50 A 59.427 59.427 0 0 1 208.869 45.363 Q 214.945 40.568 220.257 39.629 A 14.589 14.589 0 0 1 222.801 39.4 Q 225.101 39.4 226.401 40.5 Q 227.101 41.2 227.451 42.4 A 12.568 12.568 0 0 0 227.567 42.777 Q 227.788 43.456 227.94 43.575 A 0.101 0.101 0 0 0 228.001 43.6 Q 228.401 43.6 228.701 43.45 A 1.397 1.397 0 0 1 229.109 43.322 A 1.859 1.859 0 0 1 229.401 43.3 A 2.863 2.863 0 0 1 231.442 44.143 A 3.757 3.757 0 0 1 231.501 44.2 A 6.084 6.084 0 0 1 231.922 44.664 Q 232.329 45.165 232.455 45.595 A 1.451 1.451 0 0 1 232.501 45.8 Q 232.601 46 226.101 55.7 Q 219.601 65.2 220.201 68.6 A 5.037 5.037 0 0 0 220.477 69.496 Q 220.677 69.968 220.96 70.281 A 1.853 1.853 0 0 0 222.401 70.9 A 6.077 6.077 0 0 0 225.198 70.017 Q 230.543 67.103 240.697 54.573 A 231.99 231.99 0 0 0 241.401 53.7 Q 241.672 53.338 241.943 53.304 A 0.453 0.453 0 0 1 242.001 53.3 Q 242.501 53.3 242.501 54 A 1.436 1.436 0 0 1 242.5 54.022 Q 242.488 54.817 241.601 56 Q 228.901 73.1 222.101 73.1 A 4.802 4.802 0 0 1 220.404 72.801 A 4.406 4.406 0 0 1 220.401 72.8 A 7.425 7.425 0 0 1 217.987 71.34 Q 216.466 69.925 216.11 67.664 A 9.402 9.402 0 0 1 216.001 66.2 Q 216.001 64.5 216.401 62.8 Z M 132.601 26.1 L 125.601 35.5 Q 121.501 41 118.201 45.65 Q 115.365 49.646 113.193 52.941 A 173.629 173.629 0 0 0 112.501 54 A 902.403 902.403 0 0 0 111.31 55.891 Q 110.687 56.883 109.999 57.984 A 1478.454 1478.454 0 0 0 109.801 58.3 Q 108.301 60.7 107.151 63.25 A 12.822 12.822 0 0 0 106.092 66.942 A 11.741 11.741 0 0 0 106.001 68.4 Q 106.001 69.6 106.701 70.55 Q 107.243 71.286 108.444 71.452 A 5.539 5.539 0 0 0 109.201 71.5 A 8.143 8.143 0 0 0 111.396 71.163 Q 113.44 70.587 116.055 69.026 A 38.501 38.501 0 0 0 117.601 68.05 A 40.697 40.697 0 0 0 122.615 64.086 Q 125.271 61.645 127.901 58.5 Q 128.401 57.9 129.001 57.4 Q 129.478 57.002 129.829 56.921 A 0.761 0.761 0 0 1 130.001 56.9 A 0.589 0.589 0 0 1 130.216 56.937 Q 130.473 57.037 130.498 57.417 A 1.292 1.292 0 0 1 130.501 57.5 Q 130.501 57.8 129.851 58.65 Q 129.353 59.301 129.002 59.747 A 43.865 43.865 0 0 1 128.801 60 L 126.401 62.7 Q 124.401 64.9 121.651 67.5 A 32.872 32.872 0 0 1 116.632 71.423 A 30.066 30.066 0 0 1 115.851 71.9 Q 112.801 73.7 109.701 73.7 Q 106.801 73.7 104.301 72.25 A 4.807 4.807 0 0 1 101.912 68.748 A 7.756 7.756 0 0 1 101.801 67.4 A 16.645 16.645 0 0 1 102.272 63.622 Q 102.689 61.837 103.475 59.854 A 40.999 40.999 0 0 1 105.151 56.2 Q 108.501 49.7 112.801 42.7 A 184.067 184.067 0 0 1 116.929 36.273 Q 125.415 23.7 129.401 23.7 Q 130.401 23.7 131.451 24.45 A 3.903 3.903 0 0 1 131.99 24.909 Q 132.26 25.188 132.413 25.486 A 1.767 1.767 0 0 1 132.601 26.1 Z M 131.501 74.8 Q 128.301 74.8 125.701 72.75 A 6.51 6.51 0 0 1 123.132 68.028 A 8.351 8.351 0 0 1 123.101 67.3 A 14.437 14.437 0 0 1 124.224 61.939 Q 126.227 56.93 131.801 51.1 A 51.315 51.315 0 0 1 136.132 47.075 Q 141.028 43.066 145.282 42.163 A 11.632 11.632 0 0 1 147.701 41.9 A 6.912 6.912 0 0 1 149.368 42.091 A 4.971 4.971 0 0 1 151.451 43.15 A 4.364 4.364 0 0 1 152.416 44.303 A 3.787 3.787 0 0 1 152.901 46.2 A 8.12 8.12 0 0 1 151.502 50.609 Q 149.746 53.356 145.789 56.052 A 40.303 40.303 0 0 1 144.001 57.2 Q 136.742 61.611 131.594 61.969 A 12.874 12.874 0 0 1 130.701 62 A 5.435 5.435 0 0 1 130.039 61.962 Q 129.688 61.919 129.386 61.827 A 3.23 3.23 0 0 1 129.301 61.8 Q 127.801 64.5 127.801 67.5 Q 127.801 71.923 131.346 72.584 A 7.403 7.403 0 0 0 132.701 72.7 A 10.216 10.216 0 0 0 136.063 72.062 Q 139.024 71.023 142.717 68.294 A 55.205 55.205 0 0 0 145.601 66 Q 151.701 61.1 156.001 55.6 A 6.294 6.294 0 0 1 156.385 55.133 Q 157.054 54.4 157.601 54.4 A 0.864 0.864 0 0 1 157.838 54.43 Q 158.201 54.534 158.201 55 A 1.31 1.31 0 0 1 158.137 55.377 Q 158.029 55.735 157.733 56.209 A 8.278 8.278 0 0 1 157.401 56.7 Q 154.601 60.4 151.401 63.5 Q 148.201 66.6 144.501 69.2 A 46.127 46.127 0 0 1 140.469 71.844 Q 136.229 74.294 132.858 74.713 A 10.98 10.98 0 0 1 131.501 74.8 Z M 490.701 74.8 Q 487.501 74.8 484.901 72.75 A 6.51 6.51 0 0 1 482.332 68.028 A 8.351 8.351 0 0 1 482.301 67.3 A 14.437 14.437 0 0 1 483.424 61.939 Q 485.427 56.93 491.001 51.1 A 51.315 51.315 0 0 1 495.332 47.075 Q 500.228 43.066 504.482 42.163 A 11.632 11.632 0 0 1 506.901 41.9 A 6.912 6.912 0 0 1 508.568 42.091 A 4.971 4.971 0 0 1 510.651 43.15 A 4.364 4.364 0 0 1 511.616 44.303 A 3.787 3.787 0 0 1 512.101 46.2 A 8.12 8.12 0 0 1 510.702 50.609 Q 508.946 53.356 504.989 56.052 A 40.303 40.303 0 0 1 503.201 57.2 Q 495.942 61.611 490.794 61.969 A 12.874 12.874 0 0 1 489.901 62 A 5.435 5.435 0 0 1 489.239 61.962 Q 488.888 61.919 488.586 61.827 A 3.23 3.23 0 0 1 488.501 61.8 Q 487.001 64.5 487.001 67.5 Q 487.001 71.923 490.546 72.584 A 7.403 7.403 0 0 0 491.901 72.7 A 10.216 10.216 0 0 0 495.263 72.062 Q 498.224 71.023 501.917 68.294 A 55.205 55.205 0 0 0 504.801 66 Q 510.901 61.1 515.201 55.6 A 6.294 6.294 0 0 1 515.585 55.133 Q 516.254 54.4 516.801 54.4 A 0.864 0.864 0 0 1 517.038 54.43 Q 517.401 54.534 517.401 55 A 1.31 1.31 0 0 1 517.337 55.377 Q 517.229 55.735 516.933 56.209 A 8.278 8.278 0 0 1 516.601 56.7 Q 513.801 60.4 510.601 63.5 Q 507.401 66.6 503.701 69.2 A 46.127 46.127 0 0 1 499.669 71.844 Q 495.429 74.294 492.058 74.713 A 10.98 10.98 0 0 1 490.701 74.8 Z M 368.301 73.7 L 366.701 73.7 A 4.162 4.162 0 0 1 363.389 72.179 A 6.002 6.002 0 0 1 362.801 71.35 Q 361.456 69.093 361.403 66.974 A 6.944 6.944 0 0 1 361.401 66.8 A 12 12 0 0 1 362.089 63.045 Q 363.847 57.763 370.101 50 Q 378.901 39.1 384.301 39.1 A 6.921 6.921 0 0 1 386.35 39.377 Q 388.602 40.076 389.192 42.535 A 8.452 8.452 0 0 1 389.401 44.5 A 9.622 9.622 0 0 1 389.342 45.539 A 11.735 11.735 0 0 1 389.251 46.2 Q 389.101 47.1 388.901 48.1 A 0.5 0.5 0 0 0 389.096 48.265 Q 389.363 48.4 389.901 48.4 A 9.617 9.617 0 0 0 392.066 48.133 Q 393.117 47.889 394.285 47.424 A 23.374 23.374 0 0 0 396.301 46.5 A 1.463 1.463 0 0 1 395.86 47.347 Q 394.537 48.81 389.253 51.045 A 85.666 85.666 0 0 1 388.401 51.4 Q 389.371 54.312 383.489 61.897 A 84.711 84.711 0 0 1 381.801 64 Q 376.24 70.828 371.819 72.85 A 8.478 8.478 0 0 1 368.301 73.7 Z M 216.401 59.1 L 227.001 44.5 A 2.628 2.628 0 0 0 225.116 43.162 A 3.911 3.911 0 0 0 224.401 43.1 A 10.889 10.889 0 0 0 220.515 43.919 Q 215.308 45.928 207.939 52.864 A 98.789 98.789 0 0 0 207.901 52.9 A 62.257 62.257 0 0 0 204.081 56.733 Q 198.099 63.33 198.099 68.169 A 7.369 7.369 0 0 0 198.201 69.4 A 4.851 4.851 0 0 0 198.499 70.364 Q 199.119 71.772 200.543 71.8 A 2.96 2.96 0 0 0 200.601 71.8 A 7.889 7.889 0 0 0 204.087 70.851 Q 208.644 68.573 215.007 60.833 A 105.469 105.469 0 0 0 216.401 59.1 Z M 282.101 71.8 A 5.502 5.502 0 0 0 284.496 71.119 Q 288.803 68.965 296.401 60 Q 296.901 59.4 299.901 55.55 A 310.421 310.421 0 0 0 301.557 53.403 Q 303.426 50.961 305.96 47.574 A 1288.894 1288.894 0 0 0 308.401 44.3 Q 307.701 43.1 306.001 43.1 A 11.111 11.111 0 0 0 302.065 43.919 Q 296.794 45.933 289.401 52.9 A 61.358 61.358 0 0 0 285.345 57.007 Q 281.575 61.237 280.279 64.736 A 9.987 9.987 0 0 0 279.601 68.2 A 7.675 7.675 0 0 0 279.696 69.469 Q 280.076 71.721 281.965 71.797 A 3.333 3.333 0 0 0 282.101 71.8 Z M 77.101 44.5 L 88.201 44.6 A 58.813 58.813 0 0 1 88.895 43.316 Q 89.928 41.453 91.786 38.301 A 573.701 573.701 0 0 1 93.001 36.25 Q 96.221 30.838 101.442 22.506 A 1425.39 1425.39 0 0 1 102.701 20.5 L 77.101 44.5 Z M 368.501 70.7 A 6.551 6.551 0 0 0 371.246 70.013 Q 374.704 68.404 379.306 63.029 A 64.396 64.396 0 0 0 379.501 62.8 A 72.119 72.119 0 0 0 381.994 59.69 Q 385.449 55.102 385.925 52.485 A 4.401 4.401 0 0 0 386.001 51.7 A 5.116 5.116 0 0 1 385.094 51.025 Q 383.763 49.817 382.001 47.1 A 4.389 4.389 0 0 0 380.048 47.645 Q 376.951 49.214 372.201 55.3 A 57.847 57.847 0 0 0 369.674 58.744 Q 365.946 64.277 366.101 67.6 A 6.18 6.18 0 0 0 366.232 68.732 Q 366.668 70.7 368.501 70.7 Z M 132.101 59.8 A 10.287 10.287 0 0 0 134.7 59.429 Q 137.807 58.613 142.001 56 A 41.33 41.33 0 0 0 145.455 53.289 A 46.057 46.057 0 0 0 145.951 52.85 Q 147.901 51.1 149.151 49.3 A 9.648 9.648 0 0 0 149.796 48.24 Q 150.08 47.693 150.23 47.189 A 3.81 3.81 0 0 0 150.401 46.1 A 1.082 1.082 0 0 0 149.773 45.067 Q 149.305 44.827 148.49 44.803 A 6.328 6.328 0 0 0 148.301 44.8 A 5.821 5.821 0 0 0 146.423 45.156 Q 143.782 46.066 139.901 49.3 Q 137.301 51.5 134.901 54.1 Q 132.501 56.7 130.801 59.6 Q 131.401 59.8 132.101 59.8 Z M 491.301 59.8 A 10.287 10.287 0 0 0 493.9 59.429 Q 497.007 58.613 501.201 56 A 41.33 41.33 0 0 0 504.655 53.289 A 46.057 46.057 0 0 0 505.151 52.85 Q 507.101 51.1 508.351 49.3 A 9.648 9.648 0 0 0 508.996 48.24 Q 509.28 47.693 509.43 47.189 A 3.81 3.81 0 0 0 509.601 46.1 A 1.082 1.082 0 0 0 508.973 45.067 Q 508.505 44.827 507.69 44.803 A 6.328 6.328 0 0 0 507.501 44.8 A 5.821 5.821 0 0 0 505.623 45.156 Q 502.982 46.066 499.101 49.3 Q 496.501 51.5 494.101 54.1 Q 491.701 56.7 490.001 59.6 Q 490.601 59.8 491.301 59.8 Z M 91.802 74.162 A 0.626 0.626 0 0 0 91.801 74.2 A 0.666 0.666 0 0 0 91.83 74.2 Q 91.978 74.193 91.915 74.116 A 0.218 0.218 0 0 0 91.901 74.1 A 0.242 0.242 0 0 0 91.891 74.091 Q 91.811 74.019 91.802 74.162 Z" vector-effect="non-scaling-stroke"/></g></svg>